<?xml version="1.0" encoding="utf-8"?>
<!-- Generator: Adobe Illustrator 16.0.3, SVG Export Plug-In . SVG Version: 6.00 Build 0)  -->
<!DOCTYPE svg PUBLIC "-//W3C//DTD SVG 1.1//EN" "http://www.w3.org/Graphics/SVG/1.1/DTD/svg11.dtd">
<svg version="1.1" id="Layer_1" xmlns="http://www.w3.org/2000/svg" xmlns:xlink="http://www.w3.org/1999/xlink" x="0px" y="0px"
	 width="343px" height="123px" viewBox="0 0 343 123" enable-background="new 0 0 343 123" xml:space="preserve">
<g opacity="0.9">
	<g>
		<g>
			<path fill-rule="evenodd" clip-rule="evenodd" fill="#FFF" d="M340.12,88.664c-2.49-0.387-3.928,3.142-9.832,8.865
				c-3.31,3.209-6.821,6.516-12.523,8.926c-8.374,3.549-9.83-1.228-8.992-8.121c0.902-7.317,4.051-16.68,5.102-21.694
				c0.362-1.726,0.422-4.049-1.094-6.396c-1.712-2.626-5.791-4.038-7.89-1.528c-3.104,3.662-4.458,6.336-14.452,18.849
				c-8.789,11.031-20.1,20.122-26.484,15.17c-3.471-2.672-3.895-8.126-0.027-15.688c4.207-8.239,13.902-17.705,22.55-23.988
				c11.313-8.216,17.544-9.564,18.744-9.883c1.527-0.4,2.714-0.451,3.224,0.172c1.26,1.57-2.097,3.412-1.03,7.012
				c0.759,2.496,3.377,3.575,4.931,3.667c2.204,0.173,7.471-1.204,8.578-8.029c1.107-6.855-5.214-18.943-34.286-7.824
				c-22.261,8.511-44.804,30.178-48.738,47.796c-4.339,2.793-9.758,5.146-15.29,4.724c-10.26-0.778-9.39-13.314-4.33-22.931
				c5.14-9.713,14.162-16.44,16.946-19.017c3.909-3.622,7.694-4.117,5.423-10.439c-1.607-4.412-4.13-4.666-8.312-3.459
				c-10.106,2.911-21.923,5.102-29.544,5.883c-0.257-4.843-3.223-9.561-9.704-9.547c-6.685,0.016-13.638,6.239-14.874,14.055
				c-1.333,8.473,2.797,12.812,6.522,14.38c-7.706,14.222-24.071,31.732-39.894,32.923c-4.455,0.328-8.553-1.211-10.641-3.653
				c10.557-6.062,21.01-14.199,26.87-26.379c7.724-16.006-0.009-25.402-11.162-25.402c-12.507,0-35.389,12.683-42.375,34.534
				c-1.867,5.891-2.33,13.337-0.543,20.161c-6.531,2.297-13.652,3.792-20.357,3.792c-9.91,0-10.078-7.621-7.672-12.768
				c1.697-3.621,15.285-32.643,24.611-52.379c30.045-5.33,70.292-12.394,77.687-13.756c4.48-0.806,9.9-1.097,9.565-4.893
				c-0.243-2.874-3.862-2.794-6.854-2.668l-72.025,3.654C119.609,4.203,101.65-3.011,98.633,1.135
				c-1.219,1.634-5.986,11.178-11.698,22.914l-13.268,0.66c-5.877,0.464-15.476,1.402-16.838,11.005
				c-1.062,7.512,6.691,11.927,15.469,10.315c1.148-0.229,2.641-0.486,4.426-0.809C70.5,58.268,64.935,70.062,63.193,73.891
				c-4.297,9.401-8.754,17.878-9.771,25.846c-6.338,3.765-13.293,6.562-19.301,6.32c-9.904-0.366-9.603-8.163-7.502-12.763
				c1.516-3.31,4.109-9.087,7.473-16.341c4.561-9.781,0.178-17.319-6.94-19.845c-4.811-1.725-9.254-1.814-11.181-0.099
				c-2.481,2.207-0.605,7.759-2.648,12.285C8.918,78.332,5.537,86.17,3.27,91.012c-4.914,10.393-4.078,19.404,1.097,25.129
				c3.684,4.099,9.829,6.739,18.127,6.739c9.903,0,22.129-5.47,32.236-12.171c0.329,0.803,0.725,1.604,1.174,2.393
				c3.153,5.496,9.848,9.319,19.102,9.319c10.154,0,24.749-5.011,36.235-11.476c4.174,5.752,11.049,9.808,21.47,9.979
				c30.062,0.452,53.827-28.115,63.266-50.757c8.322-1.185,18.666-5.309,18.666-5.309s-26.716,24.645-20.774,43.987
				c2.371,7.693,10.359,14.102,21.818,12.977c9.192-0.898,17.146-6.105,23.287-11.859c4.063,10.142,14.576,11.733,21.637,10.72
				c17.574-2.524,29.267-19.898,29.267-19.898s-1.825,6.682,0.62,12.487c1.771,4.225,6.014,8.132,13.902,8.132
				c17.795,0,31.793-18.19,34.691-22.643C343.744,91.479,342.621,89.052,340.12,88.664 M128.6,90.721
				c-0.399-0.946-2.488-9,3.725-19.185c5.181-8.552,14.21-13.62,17.772-10.565c2.43,2.086-0.194,9.226-8,18.209
				C137.393,84.598,133.052,88.193,128.6,90.721"/>
			<path fill-rule="evenodd" clip-rule="evenodd" fill="#FFF" d="M32.333,49.866c7.407,0,14.732-5.779,16.336-12.917
				c1.623-7.135-3.07-12.926-10.486-12.926c-7.414,0-14.738,5.791-16.355,12.926C20.207,44.086,24.927,49.866,32.333,49.866"/>
		</g>
	</g>
</g>
</svg>
